<svg xmlns="http://www.w3.org/2000/svg" viewBox="0 0 299.09 80"><path d="M32.44.61C27.23.71 24 5.3 24 10.2v64.2h13.13v-50h.42l32.83 50h13.45v-73H70.7v47.16h-.42L42.66 6.76C40.26 3.11 37.13.61 32.44.61m88.26 53.9h-.41L103 1.46H88l22.82 67a9.851 9.851 0 0 0 9.49 6.77c4.28-.02 8.07-2.73 9.48-6.77l22.83-67h-14.51L120.7 54.51m70.48-34.91-12.82 36.89h-.42l-12.5-36.89h-14.18l17.83 49.92a8.604 8.604 0 0 0 8.54 5.73c3.82.04 7.25-2.35 8.55-5.94l17.93-49.71h-12.93m14.76 18.03c0 22.82 14.39 37.62 34.5 37.62s34.61-14.8 34.61-37.62S260.56 0 240.44 0s-34.5 14.8-34.5 37.63m14.49 0c0-15.32 7.82-24.81 20-24.81s20.12 11.05 20.12 24.81c0 15.32-7.92 24.81-20.12 24.81s-20-9.49-20-24.81" style="fill:#2a3c9a;stroke-width:0"/><path d="M289.22 30.36s-5.33 0-5.33 5.33v3.63s0 5.33 5.33 5.33h4.54s5.33 0 5.33-5.33v-3.63s0-5.33-5.33-5.33h-4.54m-283.89 0S0 30.36 0 35.69v3.63s0 5.33 5.33 5.33h4.54s5.33 0 5.33-5.33v-3.63s0-5.33-5.33-5.33H5.33" style="fill:#75aad8;stroke-width:0"/><path d="M291.23 37.08H7.6" style="fill:none;stroke:#fff;stroke-miterlimit:10;stroke-width:.93px"/></svg>
