<svg xmlns="http://www.w3.org/2000/svg" viewBox="0 0 512 512" width="512" height="512">
  <rect width="512" height="512" fill="#FFFFFF"/>
  <g fill="#0A0E1A">
    <path d="M500 0 0 1490H458L631 912Q670 782 706.5 652.0Q743 522 778 391Q812 522 847.0 652.0Q882 782 919 912L1084 1490H1536L1052 0Z" transform="translate(60.03 392.80) scale(0.18555 -0.18555)"/>
    <path d="M272 -19Q186 -19 125.0 42.0Q64 103 64 189Q64 275 125.0 336.0Q186 397 272 397Q358 397 419.0 336.0Q480 275 480 189Q480 103 419.0 42.0Q358 -19 272 -19Z" transform="translate(351.03 392.80) scale(0.18555 -0.18555)"/>
  </g>
</svg>
