<svg xmlns="http://www.w3.org/2000/svg" viewBox="0 0 573 220" width="573" height="220">
  <rect width="573" height="220" fill="#fafaf9"/>
  <g fill="#0A0E1A">
    <path d="M500 0 0 1490H458L631 912Q670 782 706.5 652.0Q743 522 778 391Q812 522 847.0 652.0Q882 782 919 912L1084 1490H1536L1052 0Z" transform="translate(49.64 150.00) scale(0.05371 -0.05371)"/>
    <path d="M0 0 500 1490H1060L1565 0H1097L1026 245H528L455 0ZM624 565H934L930 578Q891 713 854.0 845.0Q817 977 781 1113Q744 977 706.0 845.0Q668 713 628 578Z" transform="translate(117.05 150.00) scale(0.05371 -0.05371)"/>
    <path d="M80 0V1490H496V933H992V1490H1408V0H992V581H496V0Z" transform="translate(198.90 150.00) scale(0.05371 -0.05371)"/>
    <path d="M80 0V1490H1234V1138H496V914H1177V574H496V352H1234V0Z" transform="translate(276.63 150.00) scale(0.05371 -0.05371)"/>
    <path d="M753 -21Q555 -21 405.0 76.5Q255 174 171.5 346.5Q88 519 88 744Q88 971 171.5 1143.5Q255 1316 404.5 1413.5Q554 1511 753 1511Q916 1511 1042.0 1444.5Q1168 1378 1248.0 1265.0Q1328 1152 1353 1013H1214Q1192 1120 1130.0 1203.5Q1068 1287 972.5 1335.5Q877 1384 753 1384Q598 1384 478.5 1305.5Q359 1227 291.0 1083.5Q223 940 223 744Q223 548 291.0 405.0Q359 262 478.5 184.0Q598 106 753 106Q876 106 971.5 154.0Q1067 202 1129.0 286.0Q1191 370 1215 475H1353Q1329 337 1248.5 224.5Q1168 112 1042.0 45.5Q916 -21 753 -21Z" transform="translate(352.13 150.00) scale(0.05371 -0.05371)"/>
    <path d="M745 -21Q552 -21 404.0 76.5Q256 174 172.0 347.0Q88 520 88 744Q88 970 172.0 1143.0Q256 1316 404.0 1413.5Q552 1511 745 1511Q938 1511 1086.0 1413.5Q1234 1316 1318.0 1143.0Q1402 970 1402 744Q1402 519 1318.0 346.5Q1234 174 1086.0 76.5Q938 -21 745 -21ZM745 106Q892 106 1010.0 182.0Q1128 258 1197.5 401.0Q1267 544 1267 744Q1267 945 1197.5 1088.0Q1128 1231 1010.0 1307.5Q892 1384 745 1384Q599 1384 480.5 1308.0Q362 1232 292.5 1088.5Q223 945 223 744Q223 545 292.0 402.0Q361 259 479.5 182.5Q598 106 745 106Z" transform="translate(427.11 150.00) scale(0.05371 -0.05371)"/>
    <path d="M217 -15Q174 -15 144.5 14.5Q115 44 115 86Q115 129 144.5 158.0Q174 187 217 187Q259 187 288.5 158.0Q318 129 318 86Q318 44 288.5 14.5Q259 -15 217 -15Z" transform="translate(500.11 150.00) scale(0.05371 -0.05371)"/>
  </g>
</svg>
